<svg width="15" height="15" viewBox="0 0 15 15" fill="none" xmlns="http://www.w3.org/2000/svg">
<g clip-path="url(#clip0_123_1138)">
<path d="M1.03619 13.0467C0.961304 12.9718 0.877351 12.9322 0.793504 12.9322C0.66829 12.9322 0.563866 13.0211 0.514226 13.1699L0.0241915 14.6402C-0.0129854 14.7517 -0.00715167 14.8496 0.040579 14.916C0.0796121 14.9701 0.144473 15 0.223175 15C0.265072 15 0.310947 14.9918 0.359526 14.9755L1.82974 14.4855C1.9549 14.4438 2.03694 14.3652 2.0607 14.2645C2.08446 14.1637 2.04622 14.0568 1.95293 13.9635L1.03619 13.0467Z" fill="#F1F1F1"/>
<path d="M14.8603 2.56043L12.4392 0.139321C12.3494 0.0495338 12.2295 0 12.1017 0C11.9739 0 11.854 0.0495338 11.7643 0.139321L2.75196 9.15161C2.58162 9.32196 2.38109 9.64642 2.30494 9.87489L1.91158 11.055C1.83187 11.2941 1.91201 11.6336 2.0902 11.8118L3.18785 12.9095C3.31529 13.0369 3.53151 13.1193 3.73877 13.1193C3.81323 13.1193 3.88254 13.1088 3.94465 13.0881L5.12481 12.6947C5.35334 12.6186 5.67775 12.418 5.84804 12.2477L14.8603 3.23545C15.0464 3.04935 15.0464 2.74653 14.8603 2.56043ZM13.3929 3.7599L8.846 8.30678C8.69067 8.46212 8.48707 8.53976 8.28347 8.53976C8.07987 8.53976 7.87627 8.46206 7.72099 8.30678C7.41032 7.99616 7.41032 7.49244 7.72099 7.18177L12.2679 2.63489C12.5785 2.32427 13.0822 2.32427 13.3929 2.63489C13.7036 2.94551 13.7036 3.44923 13.3929 3.7599Z" fill="#F1F1F1"/>
</g>
<defs>
<clipPath id="clip0_123_1138">
<rect width="15" height="15" fill="white"/>
</clipPath>
</defs>
</svg>
