<svg width="13" height="15" viewBox="0 0 13 15" fill="none" xmlns="http://www.w3.org/2000/svg">
<path fill-rule="evenodd" clip-rule="evenodd" d="M8.49217 0.615234L8.6328 0.685547C8.70897 0.723633 8.79979 0.788086 8.83495 0.826172C8.8701 0.861328 8.91991 0.943359 8.94335 1.00488C8.98143 1.09277 8.99022 1.24512 8.99022 2.49023L11.6709 2.50488L11.8115 2.58398C11.9082 2.64258 11.9756 2.70996 12.0371 2.81836C12.0928 2.9209 12.125 3.01465 12.125 3.09082C12.125 3.15527 12.1074 3.26074 12.0898 3.3252C12.0693 3.38965 11.999 3.49512 11.9346 3.55957C11.8701 3.62402 11.7646 3.69434 11.7002 3.71484C11.6094 3.74121 10.3994 3.75 6.49999 3.75C2.60057 3.75 1.39061 3.74121 1.29979 3.71484C1.23534 3.69434 1.12987 3.62402 1.06249 3.55957C0.998035 3.49512 0.927723 3.38965 0.907215 3.3252C0.883778 3.26074 0.872059 3.14941 0.880848 3.07617C0.886707 3.00293 0.927723 2.88281 0.971668 2.80371C1.0244 2.70996 1.09472 2.63965 1.32909 2.50488L4.00975 2.49023V1.79297C4.00975 1.18066 4.01854 1.08398 4.06542 0.981445C4.09471 0.916992 4.15038 0.834961 4.18846 0.802734C4.22655 0.767578 4.31151 0.711914 4.37596 0.679688C4.49022 0.618164 4.52831 0.618164 8.49217 0.615234ZM5.24022 2.49023H7.75975V1.875H5.24022V2.49023Z" fill="#A5A5A5"/>
<path d="M7.47852 5.70703C7.39355 5.75391 7.29102 5.84766 7.23242 5.93262L7.12988 6.07324V10.7959C7.26465 11.0303 7.33496 11.1006 7.43164 11.1533C7.50781 11.1943 7.61621 11.2383 7.67188 11.2441C7.72754 11.2529 7.8418 11.2412 7.9209 11.2178C8.02051 11.1914 8.10547 11.1416 8.18457 11.0596C8.24902 10.9951 8.31934 10.8896 8.33984 10.8252C8.36621 10.7373 8.375 10.1338 8.375 8.4375C8.375 6.74121 8.36621 6.1377 8.33984 6.0498C8.31934 5.98535 8.24902 5.87988 8.18457 5.81543C8.12012 5.75098 8.01465 5.68066 7.9502 5.66016C7.88574 5.64258 7.78613 5.625 7.72754 5.625C7.66602 5.625 7.56348 5.65723 7.47852 5.70703Z" fill="#A5A5A5"/>
<path d="M5.04395 5.65429C4.99121 5.67187 4.88867 5.74218 4.81543 5.81543C4.73633 5.89453 4.67188 5.99121 4.6543 6.05859C4.63672 6.12597 4.625 7.02539 4.625 8.4375C4.625 9.84961 4.63672 10.749 4.6543 10.8193C4.67188 10.8809 4.73633 10.9805 4.80664 11.0537C4.89453 11.1416 4.97656 11.1914 5.0791 11.2178C5.1582 11.2412 5.27246 11.2529 5.32812 11.2441C5.38379 11.2383 5.49219 11.1943 5.56836 11.1533C5.66504 11.1006 5.73535 11.0303 5.78809 10.9336L5.87012 10.7959V6.0791C5.73535 5.84765 5.66211 5.77441 5.56836 5.72168C5.48047 5.66894 5.37793 5.63965 5.28418 5.63379C5.20215 5.63086 5.09375 5.63965 5.04102 5.65429H5.04395Z" fill="#A5A5A5"/>
<path d="M1.95898 4.39746C1.90332 4.41211 1.79492 4.47656 1.71582 4.54102C1.60742 4.63184 1.56933 4.69043 1.53418 4.81348C1.49609 4.94531 1.49023 5.42871 1.49609 8.62793L1.50488 12.29C1.60742 12.6533 1.69531 12.8789 1.76562 13.0225C1.83887 13.1689 1.96777 13.3711 2.05273 13.4766C2.13769 13.5791 2.29297 13.7344 2.39844 13.8223C2.5039 13.9072 2.70605 14.0361 2.85254 14.1094C2.99902 14.1826 3.24512 14.2705 3.40918 14.3115L3.70215 14.3848H9.29785C9.75488 14.2705 10.001 14.1826 10.1475 14.1094C10.291 14.0361 10.4961 13.9072 10.6016 13.8223C10.707 13.7344 10.8623 13.5791 10.9473 13.4766C11.0322 13.3711 11.1611 13.1689 11.2344 13.0225C11.3047 12.8789 11.3926 12.6533 11.4277 12.5244L11.4951 12.29C11.5098 6.21387 11.5039 4.97754 11.4834 4.87793C11.4629 4.77832 11.416 4.6875 11.334 4.59375C11.2432 4.48242 11.1846 4.44434 11.0615 4.40918C10.9736 4.38281 10.8594 4.3711 10.792 4.37988C10.7275 4.38867 10.6162 4.43262 10.543 4.47656C10.4463 4.53516 10.3877 4.60254 10.3291 4.7168L10.25 4.87793C10.25 11.9854 10.25 12.0908 10.1943 12.2754C10.1621 12.3809 10.083 12.5391 10.0215 12.627C9.95703 12.7148 9.83691 12.8379 9.74902 12.8994C9.66113 12.958 9.50879 13.0342 9.40625 13.0664C9.23047 13.1221 9.13672 13.125 6.50586 13.125C3.88379 13.125 3.78418 13.125 3.59961 13.0693C3.49414 13.0371 3.33594 12.958 3.24805 12.8965C3.16015 12.832 3.03711 12.7119 2.97558 12.624C2.91699 12.5361 2.84082 12.3838 2.80859 12.2842C2.75 12.1055 2.75 12.0117 2.75 8.49024L2.75293 4.87793C2.60937 4.59961 2.54785 4.53223 2.4541 4.47656C2.38379 4.43262 2.2666 4.3916 2.19336 4.38281C2.12012 4.37695 2.01465 4.37988 1.95898 4.39746Z" fill="#A5A5A5"/>
</svg>
